<svg width="24" height="24" viewBox="0 0 24 24" fill="none" xmlns="http://www.w3.org/2000/svg">
<rect x="0.5" y="0.5" width="23" height="23" rx="4.5" fill="black" stroke="#D4AE3D"/>
<path d="M6.77085 19.9749C6.69936 19.9667 6.63199 19.9372 6.5775 19.8903C6.523 19.8433 6.48391 19.781 6.46531 19.7114C6.44671 19.6419 6.44946 19.5684 6.4732 19.5005C6.49694 19.4326 6.54057 19.3734 6.59842 19.3306C6.9932 18.9358 7.39706 18.541 7.79638 18.1553C7.83354 18.1225 7.86298 18.0819 7.88259 18.0364C7.90221 17.9909 7.91151 17.9416 7.90983 17.8921V6.09399C7.91698 5.99554 7.88613 5.8981 7.82361 5.82172C7.52866 5.44055 7.23824 5.05031 6.93875 4.66006C6.87989 4.60215 6.84043 4.52742 6.8258 4.44615C6.81117 4.36489 6.8221 4.28109 6.85707 4.20629C6.89757 4.13294 6.96012 4.07419 7.03586 4.03836C7.11159 4.00253 7.19668 3.99143 7.27908 4.00663H11.0499C11.4447 4.00663 11.5582 4.12007 11.5582 4.51485V17.1661C11.5582 17.4429 11.5219 17.4111 11.8032 17.4111C14.2173 17.4111 16.6314 17.4111 19.0636 17.4111C19.1684 17.3974 19.2748 17.4207 19.3642 17.477C19.4537 17.5334 19.5207 17.6192 19.5537 17.7197V17.8966C19.5091 18.043 19.426 18.1746 19.3132 18.2778C18.7596 18.8223 18.2286 19.3487 17.7159 19.8887C17.6648 19.9331 17.6045 19.9655 17.5394 19.9835C17.4742 20.0016 17.4058 20.0048 17.3392 19.9931L6.77085 19.9749Z" fill="url(#paint0_linear)"/>
<path d="M12.2715 11.8025C12.2715 10.2279 12.2715 8.64875 12.2715 7.07416C12.2715 6.94256 12.3032 6.90626 12.4394 6.9108C13.7158 6.94126 14.946 7.39439 15.9372 8.19917C16.9283 9.00394 17.6245 10.1149 17.9164 11.3578C18.1534 12.2745 18.1553 13.2361 17.9221 14.1538C17.689 15.0715 17.2282 15.9155 16.5823 16.6079C16.5551 16.6416 16.5205 16.6686 16.4811 16.6867C16.4418 16.7048 16.3987 16.7136 16.3554 16.7123C15.0637 16.7123 13.7705 16.7123 12.4757 16.7123C12.3305 16.7123 12.2851 16.6806 12.2851 16.5308C12.2715 14.9562 12.2715 13.3816 12.2715 11.8025Z" fill="url(#paint1_linear)"/>
<path d="M7.19523 7.59142C7.19523 7.90907 7.19523 8.22671 7.19523 8.54435C7.19174 8.60939 7.16425 8.67083 7.11809 8.71678C6.38908 9.6319 5.92876 10.7316 5.78853 11.8932C5.6731 12.7434 5.72971 13.608 5.95499 14.4359C6.18027 15.2637 6.56963 16.0379 7.09994 16.7123C7.16812 16.7933 7.2037 16.8969 7.19977 17.0027C7.19977 17.2886 7.19977 17.579 7.19977 17.8694C6.47373 17.5699 5.24854 15.174 5.07611 13.7854C4.91216 12.6603 5.01392 11.5124 5.37324 10.4337C5.73255 9.35498 6.33944 8.37536 7.14532 7.57327L7.19523 7.59142Z" fill="url(#paint2_linear)"/>
<path d="M7.18471 15.4917C6.71388 14.6442 6.4668 13.6908 6.4668 12.7214C6.4668 11.7519 6.71388 10.7985 7.18471 9.95108V15.4917Z" fill="url(#paint3_linear)"/>
<path d="M19.533 12.4105C19.533 12.288 19.533 12.161 19.5057 12.0384C19.4283 11.1237 19.1691 10.2335 18.7434 9.42016C18.4682 8.87987 18.1234 8.37796 17.7179 7.92724C17.6135 7.80472 17.5091 7.68674 17.3957 7.5733C17.1121 7.30028 16.8087 7.04851 16.4881 6.82003C15.3013 5.95302 13.8739 5.47721 12.4042 5.45871C12.2771 5.45871 12.2363 5.49047 12.2454 5.61299C12.2544 5.75503 12.2544 5.8975 12.2454 6.03954C12.2454 6.14845 12.2454 6.18929 12.386 6.19382C12.7638 6.2052 13.14 6.24617 13.5114 6.31634C14.93 6.59407 16.2166 7.33371 17.1705 8.41978C18.1244 9.50585 18.6919 10.8772 18.7842 12.3198C18.8818 13.8412 18.4364 15.3478 17.5273 16.5716C17.5001 16.6125 17.4456 16.6442 17.4683 16.7123H18.2306C18.2657 16.7129 18.3001 16.7028 18.3293 16.6834C18.3585 16.6639 18.3811 16.636 18.394 16.6034C18.8012 15.9726 19.1074 15.2821 19.3015 14.5569C19.3817 14.2927 19.4409 14.0226 19.4785 13.7492C19.4785 13.6266 19.5057 13.5087 19.5148 13.3907C19.5239 13.2727 19.5148 13.1456 19.5148 13.0277C19.533 12.8235 19.533 12.6283 19.533 12.4105Z" fill="url(#paint4_linear)"/>
<defs>
<linearGradient id="paint0_linear" x1="13.0034" y1="4" x2="13.0034" y2="20" gradientUnits="userSpaceOnUse">
<stop stop-color="#D4AE3D"/>
<stop offset="0.505208" stop-color="#E5C657"/>
<stop offset="0.864583" stop-color="#A97E1E"/>
<stop offset="1" stop-color="#D2AD42"/>
</linearGradient>
<linearGradient id="paint1_linear" x1="15.1835" y1="6.91043" x2="15.1835" y2="16.7124" gradientUnits="userSpaceOnUse">
<stop stop-color="#D4AE3D"/>
<stop offset="0.505208" stop-color="#E5C657"/>
<stop offset="0.864583" stop-color="#A97E1E"/>
<stop offset="1" stop-color="#D2AD42"/>
</linearGradient>
<linearGradient id="paint2_linear" x1="6.10003" y1="7.57327" x2="6.10003" y2="17.8694" gradientUnits="userSpaceOnUse">
<stop stop-color="#D4AE3D"/>
<stop offset="0.505208" stop-color="#E5C657"/>
<stop offset="0.864583" stop-color="#A97E1E"/>
<stop offset="1" stop-color="#D2AD42"/>
</linearGradient>
<linearGradient id="paint3_linear" x1="6.82576" y1="9.95108" x2="6.82576" y2="15.4917" gradientUnits="userSpaceOnUse">
<stop stop-color="#D4AE3D"/>
<stop offset="0.505208" stop-color="#E5C657"/>
<stop offset="0.864583" stop-color="#A97E1E"/>
<stop offset="1" stop-color="#D2AD42"/>
</linearGradient>
<linearGradient id="paint4_linear" x1="15.8886" y1="5.45871" x2="15.8886" y2="16.7123" gradientUnits="userSpaceOnUse">
<stop stop-color="#D4AE3D"/>
<stop offset="0.505208" stop-color="#E5C657"/>
<stop offset="0.864583" stop-color="#A97E1E"/>
<stop offset="1" stop-color="#D2AD42"/>
</linearGradient>
</defs>
</svg>
