<svg width="56" height="36" viewBox="0 0 56 36" fill="none" xmlns="http://www.w3.org/2000/svg">
<path d="M0 5C0 2.23858 2.23858 0 5 0H51C53.7614 0 56 2.23858 56 5V31C56 33.7614 53.7614 36 51 36H5C2.23858 36 0 33.7614 0 31V5Z" fill="#F2F2F2"/>
<path d="M18.1822 14.998H22.3542V13.5H16.3482V22.138H17.4402C19.6802 22.138 21.4442 22.068 23.3902 21.718L23.2082 20.192C21.5422 20.472 20.0162 20.57 18.1822 20.598V14.998ZM27.8142 17.07H25.9382V12.31H24.0902V25.232H25.9382V18.596H27.8142V17.07ZM34.5471 12.562C31.7051 12.562 29.8851 13.514 29.8851 15.068C29.8851 16.636 31.7051 17.574 34.5471 17.574C37.3891 17.574 39.2231 16.636 39.2231 15.068C39.2231 13.514 37.3891 12.562 34.5471 12.562ZM34.5471 13.976C36.3111 13.976 37.3191 14.34 37.3191 15.068C37.3191 15.796 36.3111 16.16 34.5471 16.16C32.7971 16.16 31.7891 15.796 31.7891 15.068C31.7891 14.34 32.7971 13.976 34.5471 13.976ZM30.0811 20.682V25.05H38.9851V20.682H30.0811ZM37.1651 22.124V23.608H31.8871V22.124H37.1651ZM28.7231 18.316V19.772H40.3711V18.316H28.7231Z" fill="#C4C4C4"/>
</svg>
