<svg width="50" height="50" viewBox="0 0 50 50" fill="none" xmlns="http://www.w3.org/2000/svg">
<circle cx="25" cy="25" r="15" fill="white"/>
<path d="M21.5835 33.9997C20.5824 33.9925 19.6244 33.6076 18.9165 32.9283C18.2086 32.2489 17.8076 31.3295 17.8001 30.3688V19.6547C17.7957 19.0099 17.9703 18.3756 18.3059 17.8171C18.6416 17.2585 19.1262 16.7958 19.7099 16.4765C20.2936 16.1572 20.9553 15.9928 21.6272 16.0002C22.299 16.0077 22.9566 16.1867 23.5325 16.5189L33.1916 21.869C33.7658 22.188 34.2426 22.6462 34.5741 23.1978C34.9055 23.7494 35.08 24.375 35.08 25.0117C35.08 25.6485 34.9055 26.2741 34.5741 26.8257C34.2426 27.3773 33.7658 27.8355 33.1916 28.1544L23.5325 33.5046C22.942 33.837 22.268 34.0083 21.5835 33.9997ZM22.3287 20.9063V29.1584L29.7521 25.0324L22.3287 20.9063Z" fill="#FFD25F"/>
</svg>
