<svg width="50" height="50" viewBox="0 0 50 50" fill="none" xmlns="http://www.w3.org/2000/svg">
<circle cx="25" cy="25" r="25" fill="url(#paint0_linear)"/>
<path d="M19.3058 39.9995C17.6373 39.9875 16.0407 39.3461 14.8608 38.2138C13.681 37.0815 13.0126 35.5492 13.0001 33.9479V16.0912C12.9928 15.0166 13.2838 13.9594 13.8432 13.0284C14.4026 12.0975 15.2102 11.3263 16.1831 10.7941C17.1559 10.2619 18.2589 9.98797 19.3786 10.0004C20.4983 10.0128 21.5944 10.3112 22.5541 10.8648L38.6526 19.7817C39.6097 20.3133 40.4043 21.077 40.9568 21.9964C41.5092 22.9157 41.8 23.9583 41.8 25.0196C41.8 26.0808 41.5092 27.1234 40.9568 28.0428C40.4043 28.9621 39.6097 29.7258 38.6526 30.2574L22.5541 39.1743C21.57 39.7284 20.4467 40.0138 19.3058 39.9995ZM20.5478 18.1771V31.9307L32.9202 25.0539L20.5478 18.1771Z" fill="white"/>
<defs>
<linearGradient id="paint0_linear" x1="-1.17347e-05" y1="-1.17347e-05" x2="50" y2="50" gradientUnits="userSpaceOnUse">
<stop stop-color="#FFD25F"/>
<stop offset="1" stop-color="#FFAC5F"/>
</linearGradient>
</defs>
</svg>
