<svg width="16" height="17" viewBox="0 0 16 17" fill="none" xmlns="http://www.w3.org/2000/svg">
<path fill-rule="evenodd" clip-rule="evenodd" d="M2.75904 2.92418C3.2778 3.34566 3.47242 3.3135 4.44659 3.2485L13.6304 2.69705C13.8252 2.69705 13.6632 2.50274 13.5983 2.47045L12.073 1.36782C11.7808 1.14092 11.3914 0.881083 10.6452 0.946085L1.75245 1.59469C1.42813 1.62684 1.36336 1.789 1.49251 1.91897L2.75904 2.92418ZM3.31042 5.06447V14.7274C3.31042 15.2467 3.56993 15.441 4.15403 15.4089L14.2471 14.8249C14.8314 14.7928 14.8965 14.4356 14.8965 14.0137V4.41557C14.8965 3.99439 14.7345 3.76726 14.3768 3.79968L3.82948 4.41557C3.44023 4.44828 3.31039 4.64299 3.31039 5.06447H3.31042ZM13.2742 5.58281C13.3389 5.87493 13.2742 6.1668 12.9815 6.19965L12.4953 6.29654V13.4304C12.073 13.6573 11.6837 13.787 11.3592 13.787C10.8398 13.787 10.7097 13.6248 10.3206 13.1386L7.13961 8.14493V12.9765L8.1462 13.2036C8.1462 13.2036 8.1462 13.787 7.33409 13.787L5.09529 13.9169C5.03026 13.787 5.09529 13.463 5.32238 13.3981L5.90661 13.2362V6.84795L5.09545 6.78295C5.03039 6.49082 5.19241 6.06961 5.6471 6.03693L8.04881 5.87503L11.3592 10.9338V6.45867L10.5152 6.3618C10.4504 6.00467 10.7097 5.74536 11.0343 5.7132L13.2742 5.58281ZM1.0058 0.71922L10.2556 0.0380343C11.3915 -0.0593858 11.6838 0.00587808 12.3977 0.524478L15.3504 2.59976C15.8376 2.95663 16 3.05379 16 3.44281V14.8249C16 15.5382 15.7401 15.9601 14.8316 16.0246L4.08975 16.6733C3.40774 16.7058 3.08316 16.6086 2.726 16.1544L0.551611 13.3332C0.162028 12.8139 0 12.4254 0 11.9709V1.85374C0 1.2704 0.259941 0.783795 1.0058 0.71922Z" fill="#C4C4C4"/>
</svg>
