<svg width="29" height="30" viewBox="0 0 29 30" fill="none" xmlns="http://www.w3.org/2000/svg">
<path d="M6.30576 29.9995C4.63727 29.9875 3.04066 29.3461 1.86083 28.2138C0.68099 27.0815 0.0126339 25.5492 0.000135306 23.9479V6.09122C-0.00719945 5.01657 0.283795 3.95941 0.843194 3.02845C1.40259 2.09748 2.21023 1.32629 3.18307 0.794106C4.15592 0.261926 5.25887 -0.012029 6.37858 0.000405178C7.4983 0.0128393 8.59437 0.311189 9.55412 0.86483L25.6526 9.78173C26.6097 10.3133 27.4043 11.077 27.9568 11.9964C28.5092 12.9157 28.8 13.9583 28.8 15.0196C28.8 16.0808 28.5092 17.1234 27.9568 18.0428C27.4043 18.9621 26.6097 19.7258 25.6526 20.2574L9.55412 29.1743C8.56998 29.7284 7.44669 30.0138 6.30576 29.9995ZM7.54779 8.17715V21.9307L19.9202 15.0539L7.54779 8.17715Z" fill="white"/>
</svg>
