<svg width="79" height="36" viewBox="0 0 79 36" fill="none" xmlns="http://www.w3.org/2000/svg">
<path d="M31 0H5C2.23858 0 0 2.23858 0 5V31C0 33.7614 2.23858 36 5 36H31C33.7614 36 36 33.7614 36 31V5C36 2.23858 33.7614 0 31 0Z" fill="#FFD25F"/>
<path d="M23.1274 32.4998C22.4322 32.4948 21.7669 32.2275 21.2753 31.7557C20.7837 31.2839 20.5053 30.6455 20.5001 29.9783V22.538C20.497 22.0902 20.6182 21.6498 20.8513 21.2619C21.0844 20.874 21.4209 20.5526 21.8263 20.3309C22.2316 20.1091 22.6912 19.995 23.1577 20.0002C23.6243 20.0053 24.081 20.1297 24.4809 20.3603L31.1886 24.0757C31.5874 24.2972 31.9185 24.6154 32.1486 24.9985C32.3788 25.3815 32.5 25.816 32.5 26.2581C32.5 26.7003 32.3788 27.1348 32.1486 27.5178C31.9185 27.9009 31.5874 28.2191 31.1886 28.4406L24.4809 32.1559C24.0708 32.3868 23.6028 32.5057 23.1274 32.4998ZM23.6449 23.4071V29.1378L28.8001 26.2725L23.6449 23.4071Z" fill="white"/>
<path d="M13.3968 15.9961C13.1201 15.9981 12.8487 15.917 12.6158 15.7625C12.383 15.6081 12.1987 15.387 12.0854 15.1263L10.2283 10.8658L8.39997 15.1164C8.27872 15.3965 8.07629 15.6309 7.82059 15.7873C7.56488 15.9436 7.26851 16.0142 6.97233 15.9892C6.67615 15.9643 6.39477 15.8451 6.16698 15.648C5.93918 15.4509 5.77621 15.1858 5.70053 14.889L3.54672 6.40776C3.45025 6.02631 3.50446 5.62091 3.69745 5.28074C3.89043 4.94057 4.20637 4.69349 4.57576 4.59387C4.94515 4.49424 5.33774 4.55024 5.66716 4.74953C5.99657 4.94881 6.23583 5.27506 6.33231 5.65651L7.43315 10.0256L8.89774 6.61535C9.01061 6.35351 9.19455 6.13105 9.4273 5.97491C9.66005 5.81878 9.93162 5.73566 10.2092 5.73559C10.4854 5.73602 10.7557 5.81819 10.9882 5.97235C11.2206 6.12651 11.4053 6.34621 11.5206 6.60545L13.033 10.0751L14.1626 5.65651C14.2046 5.46193 14.2841 5.27808 14.3965 5.11597C14.5088 4.95386 14.6517 4.81681 14.8165 4.71301C14.9813 4.60921 15.1647 4.5408 15.3557 4.51186C15.5467 4.48292 15.7414 4.49405 15.9281 4.54459C16.1149 4.59513 16.2898 4.68403 16.4425 4.80598C16.5953 4.92794 16.7226 5.08043 16.8169 5.25436C16.9112 5.42829 16.9706 5.62008 16.9915 5.81826C17.0125 6.01644 16.9945 6.21693 16.9386 6.40776L14.7848 14.8791C14.7111 15.177 14.5485 15.4432 14.32 15.6402C14.0914 15.8371 13.8086 15.9548 13.5117 15.9763L13.3968 15.9961Z" fill="white"/>
<path d="M23.5189 17.17C23.1396 17.17 22.7759 17.0193 22.5077 16.7512C22.2395 16.483 22.0889 16.1192 22.0889 15.74V5.42999C22.0889 5.05073 22.2395 4.687 22.5077 4.41882C22.7759 4.15065 23.1396 4 23.5189 4C23.8981 4 24.2619 4.15065 24.53 4.41882C24.7982 4.687 24.9489 5.05073 24.9489 5.42999V15.77C24.941 16.144 24.7869 16.5001 24.5196 16.7618C24.2522 17.0235 23.893 17.1701 23.5189 17.17Z" fill="white"/>
<path d="M28.5789 17.17C28.1997 17.17 27.8359 17.0193 27.5678 16.7512C27.2996 16.483 27.1489 16.1192 27.1489 15.74V5.42999C27.1489 5.05073 27.2996 4.687 27.5678 4.41882C27.8359 4.15065 28.1997 4 28.5789 4C28.9582 4 29.3219 4.15065 29.5901 4.41882C29.8583 4.687 30.0089 5.05073 30.0089 5.42999V15.77C30.0011 16.144 29.847 16.5001 29.5796 16.7618C29.3123 17.0235 28.9531 17.1701 28.5789 17.17Z" fill="white"/>
<path d="M31.2187 9.43001H20.8787C20.4995 9.43001 20.1357 9.27935 19.8676 9.01117C19.5994 8.74299 19.4487 8.37927 19.4487 8.00002C19.4487 7.62076 19.5994 7.25702 19.8676 6.98885C20.1357 6.72067 20.4995 6.57001 20.8787 6.57001H31.2187C31.598 6.57001 31.9617 6.72067 32.2299 6.98885C32.4981 7.25702 32.6487 7.62076 32.6487 8.00002C32.6487 8.37927 32.4981 8.74299 32.2299 9.01117C31.9617 9.27935 31.598 9.43001 31.2187 9.43001Z" fill="white"/>
<path d="M31.2187 14.53H20.8787C20.4995 14.53 20.1357 14.3794 19.8676 14.1112C19.5994 13.843 19.4487 13.4793 19.4487 13.1C19.4487 12.7207 19.5994 12.357 19.8676 12.0889C20.1357 11.8207 20.4995 11.67 20.8787 11.67H31.2187C31.598 11.67 31.9617 11.8207 32.2299 12.0889C32.4981 12.357 32.6487 12.7207 32.6487 13.1C32.6487 13.4793 32.4981 13.843 32.2299 14.1112C31.9617 14.3794 31.598 14.53 31.2187 14.53Z" fill="white"/>
<path d="M7.50898 32.51C7.13146 32.5074 6.7703 32.3556 6.50428 32.0877C6.23826 31.8198 6.08898 31.4576 6.08898 31.08V20.73C6.07245 20.5329 6.09702 20.3344 6.16113 20.1472C6.22524 19.96 6.32748 19.7882 6.46142 19.6425C6.59536 19.4969 6.75806 19.3807 6.93923 19.3011C7.12041 19.2216 7.31613 19.1805 7.51399 19.1805C7.71185 19.1805 7.90755 19.2216 8.08872 19.3011C8.2699 19.3807 8.4326 19.4969 8.56654 19.6425C8.70047 19.7882 8.80274 19.96 8.86685 20.1472C8.93096 20.3344 8.95552 20.5329 8.93899 20.73V31.08C8.93899 31.4593 8.78833 31.823 8.52015 32.0912C8.25197 32.3594 7.88824 32.51 7.50898 32.51Z" fill="white"/>
<path d="M12.5789 32.5101C12.1997 32.5101 11.8359 32.3594 11.5678 32.0912C11.2996 31.823 11.1489 31.4593 11.1489 31.08V20.7301C11.1489 20.3508 11.2996 19.9871 11.5678 19.7189C11.8359 19.4507 12.1997 19.3 12.5789 19.3C12.9582 19.3 13.3219 19.4507 13.5901 19.7189C13.8583 19.9871 14.0089 20.3508 14.0089 20.7301V31.08C14.0089 31.2678 13.9719 31.4538 13.9001 31.6273C13.8282 31.8008 13.7229 31.9584 13.5901 32.0912C13.4573 32.224 13.2997 32.3293 13.1262 32.4012C12.9527 32.4731 12.7667 32.5101 12.5789 32.5101Z" fill="white"/>
<path d="M15.2187 24.7999H4.87872C4.49946 24.7999 4.13575 24.6493 3.86757 24.3811C3.59939 24.1129 3.44873 23.7492 3.44873 23.3699C3.44873 22.9907 3.59939 22.627 3.86757 22.3588C4.13575 22.0906 4.49946 21.9399 4.87872 21.9399H15.2187C15.598 21.9399 15.9617 22.0906 16.2299 22.3588C16.4981 22.627 16.6487 22.9907 16.6487 23.3699C16.6487 23.7492 16.4981 24.1129 16.2299 24.3811C15.9617 24.6493 15.598 24.7999 15.2187 24.7999Z" fill="white"/>
<path d="M15.2187 29.87H4.87872C4.49946 29.87 4.13575 29.7193 3.86757 29.4512C3.59939 29.183 3.44873 28.8193 3.44873 28.44C3.44873 28.0607 3.59939 27.697 3.86757 27.4288C4.13575 27.1607 4.49946 27.01 4.87872 27.01H15.2187C15.598 27.01 15.9617 27.1607 16.2299 27.4288C16.4981 27.697 16.6487 28.0607 16.6487 28.44C16.6487 28.8193 16.4981 29.183 16.2299 29.4512C15.9617 29.7193 15.598 29.87 15.2187 29.87Z" fill="white"/>
<path d="M56.14 18.99C52.8752 19.4959 49.5733 19.7234 46.27 19.67L46 17.84C47.14 17.84 48.45 17.84 49.82 17.84V16.67C49.0353 16.5871 48.3062 16.2258 47.765 15.6516C47.2238 15.0774 46.9063 14.3282 46.87 13.54C46.87 11.61 48.6 10.28 50.99 10.28C53.38 10.28 55.13 11.61 55.13 13.54C55.0979 14.3243 54.7838 15.0706 54.2455 15.6419C53.7073 16.2133 52.981 16.5712 52.2 16.65V17.75C53.49 17.68 54.77 17.59 55.98 17.41L56.14 18.99ZM54.86 20.72C54.86 22.47 56.39 24.03 60.08 24.43L59.24 26.26C56.54 25.87 54.63 24.91 53.64 23.46C52.64 24.91 50.72 25.87 48.04 26.26L47.17 24.43C50.87 24.03 52.41 22.43 52.41 20.72V20.46H54.86V20.72ZM50.99 14.99C52.14 14.99 52.92 14.44 52.92 13.5C52.92 12.56 52.14 11.99 50.99 11.99C49.84 11.99 49.08 12.53 49.08 13.5C49.08 14.47 49.84 14.99 50.99 14.99ZM61.29 14.42V16.42H59.2V21.42H56.82V9.73999H59.2V14.46L61.29 14.42Z" fill="#FFD25F"/>
<path d="M77.5601 16.69V18.56H62.5601V16.69H77.5601ZM66.0001 11.95H63.8901V10.19H76.2601V11.95H74.1601V14.07H76.1601V15.84H64.0601V14.07H66.0601L66.0001 11.95ZM66.6601 24.48H76.1701V26.19H64.3501V22H73.4401V21.19H64.3301V19.46H75.7801V23.56H66.7001L66.6601 24.48ZM71.7601 11.95H68.3601V14.07H71.7601V11.95Z" fill="#FFD25F"/>
</svg>
