<svg width="108" height="18" viewBox="0 0 108 18" fill="none" xmlns="http://www.w3.org/2000/svg">
<path d="M3.798 4.732C3.798 3.76 4.554 3.22 5.706 3.22C6.858 3.22 7.632 3.76 7.632 4.732C7.632 5.668 6.858 6.226 5.706 6.226C4.554 6.226 3.798 5.668 3.798 4.732ZM10.692 8.602C9.486 8.782 8.208 8.872 6.912 8.944V7.846C8.676 7.486 9.846 6.316 9.846 4.732C9.846 2.806 8.136 1.474 5.706 1.474C3.312 1.474 1.584 2.806 1.584 4.732C1.584 6.316 2.772 7.504 4.536 7.864V9.034C3.168 9.07 1.854 9.07 0.72 9.07L0.99 10.906C3.762 10.888 7.506 10.834 10.854 10.222L10.692 8.602ZM9.576 11.644H7.128V11.95C7.128 13.696 5.58 15.262 1.89 15.658L2.754 17.494C5.436 17.098 7.362 16.144 8.352 14.686C9.342 16.144 11.25 17.098 13.95 17.494L14.796 15.658C11.106 15.262 9.576 13.696 9.576 11.95V11.644ZM13.914 5.65V0.969999H11.538V12.652H13.914V7.612H16.002V5.65H13.914ZM26.5126 5.308H23.1106V3.184H26.5126V5.308ZM20.7526 5.308H18.7546V7.072H30.8506V5.308H28.8706V3.184H30.9766V1.42H18.6466V3.184H20.7526V5.308ZM21.4186 14.812H30.4906V10.708H19.0426V12.418H28.1506V13.228H19.0606V17.422H30.9226V15.712H21.4186V14.812ZM17.3326 7.918V9.79H32.3086V7.918H17.3326ZM38.0773 11.788H42.9913V9.898H38.0773V11.788ZM50.8335 16H54.0915L55.5495 9.412C55.7655 8.368 55.9455 7.342 56.1255 6.316H56.1975C56.3595 7.342 56.5575 8.368 56.7735 9.412L58.2675 16H61.5795L64.0455 2.662H61.5255L60.4635 9.178C60.2655 10.564 60.0675 11.986 59.8695 13.426H59.7795C59.4915 11.986 59.2215 10.546 58.9335 9.178L57.4035 2.662H55.1175L53.5695 9.178C53.2815 10.564 52.9935 11.986 52.7235 13.426H52.6515C52.4535 11.986 52.2375 10.582 52.0395 9.178L50.9775 2.662H48.2775L50.8335 16ZM68.9423 9.052C69.3383 7.666 69.7343 6.154 70.0763 4.696H70.1663C70.5443 6.136 70.9043 7.666 71.3183 9.052L71.7143 10.51H68.5463L68.9423 9.052ZM64.3342 16H67.0343L67.9703 12.58H72.2903L73.2263 16H76.0163L71.7323 2.662H68.6003L64.3342 16ZM78.8328 16H81.4968V4.894H85.2768V2.662H75.0888V4.894H78.8328V16ZM87.4368 16H90.1008V11.266H91.8828C94.7448 11.266 97.0308 9.898 97.0308 6.856C97.0308 3.706 94.7628 2.662 91.8108 2.662H87.4368V16ZM90.1008 9.16V4.786H91.6128C93.4488 4.786 94.4208 5.308 94.4208 6.856C94.4208 8.386 93.5388 9.16 91.7028 9.16H90.1008ZM99.4427 16H107.525V13.768H102.107V2.662H99.4427V16Z" fill="black"/>
</svg>
