<svg width="24" height="24" viewBox="0 0 24 24" fill="none" xmlns="http://www.w3.org/2000/svg">
<rect x="0.5" y="0.5" width="23" height="23" rx="4.5" fill="black" stroke="#9B724E"/>
<g clip-path="url(#clip0)">
<path d="M1.0307 14.8133C1.27628 14.8133 1.54233 14.8133 1.77256 14.8133C1.87488 14.8133 1.92093 14.8133 1.92093 14.6724C1.92093 12.8906 1.92093 11.1071 1.92093 9.32188C1.92093 9.20704 1.89023 9.17572 1.78279 9.17572C1.51163 9.17572 1.27628 9.17572 1 9.17572C1 9.12874 1 9.09742 1 9.0661C1 8.68504 1 8.3092 1 7.92815C1 7.82897 1.0307 7.79765 1.12791 7.79765C1.33256 7.79765 1.54233 7.79765 1.74698 7.79765C1.95163 7.79765 1.92093 7.76633 1.92093 7.62539C1.92093 7.29653 1.92093 6.96245 1.92093 6.62837C1.9216 6.41381 1.96369 6.20148 2.04479 6.00352C2.12588 5.80555 2.2444 5.62582 2.39358 5.47459C2.54276 5.32335 2.71968 5.20358 2.91422 5.1221C3.10877 5.04063 3.31714 4.99905 3.52744 4.99973H20.4419C20.817 4.9926 21.1827 5.12055 21.4746 5.3611C21.7665 5.60166 21.966 5.93945 22.0381 6.31517C22.0612 6.4478 22.0715 6.58243 22.0688 6.71711C22.0688 7.03031 22.0688 7.34873 22.0688 7.66193C22.0688 7.76633 22.0995 7.81331 22.207 7.80809C22.4167 7.80809 22.6214 7.80809 22.8312 7.80809H23C23 7.84463 23 7.86551 23 7.88639V9.17572H22.4065C22.0791 9.17572 22.0791 9.17572 22.0791 9.50458V14.8081H23V16.1914H22.0944C22.0944 16.2697 22.0944 16.3271 22.0944 16.3845C22.0944 16.7656 22.0944 17.1414 22.0944 17.5225C22.0614 17.8979 21.9005 18.2496 21.6397 18.5166C21.379 18.7836 21.0348 18.949 20.667 18.9841C20.5698 18.9893 20.4725 18.9893 20.3753 18.9841H3.64C3.35985 18.9992 3.08052 18.9415 2.82818 18.8164C2.57584 18.6913 2.35874 18.503 2.19721 18.2689C2.01342 18.0072 1.91497 17.6931 1.91581 17.3711C1.91581 17.0266 1.91581 16.6821 1.91581 16.3271C1.91581 16.2018 1.87488 16.1705 1.75721 16.1757C1.54233 16.1757 1.32744 16.1757 1.10744 16.1757C1.08608 16.1741 1.06534 16.1677 1.04675 16.1568C1.02816 16.146 1.01218 16.1311 1 16.1131C1 15.6955 1 15.2727 1 14.8498C1 14.8446 1 14.8342 1.0307 14.8133ZM12.0051 17.6164H20.3498C20.667 17.6164 20.7284 17.559 20.7284 17.2354V6.74321C20.7309 6.69626 20.7309 6.64921 20.7284 6.60227C20.7285 6.54812 20.7085 6.49593 20.6725 6.45621C20.6364 6.4165 20.5869 6.39221 20.534 6.38825H20.3549H3.63488C3.32791 6.38825 3.27674 6.44567 3.27674 6.75887V17.4076C3.27534 17.4649 3.29598 17.5205 3.33423 17.5624C3.37248 17.6044 3.4253 17.6294 3.4814 17.6321H12.0051V17.6164Z" fill="url(#paint0_linear)"/>
<path d="M15.6539 11.0604H15.2139V12.475H15.6539V12.6577C15.6539 13.5817 15.6539 14.5004 15.6539 15.4243C15.6583 15.5281 15.6414 15.6317 15.6043 15.7284C15.5672 15.8252 15.5108 15.913 15.4385 15.9862C15.3663 16.0594 15.2799 16.1164 15.1848 16.1536C15.0897 16.1908 14.9881 16.2073 14.8864 16.2021C14.3339 16.2021 13.7864 16.2021 13.2339 16.2021C13.1326 16.2113 13.0305 16.1981 12.9347 16.1634C12.8389 16.1286 12.7515 16.0732 12.6787 16.0008C12.6058 15.9284 12.5491 15.8409 12.5125 15.7441C12.4758 15.6473 12.4601 15.5435 12.4664 15.44V12.4594C12.3489 12.4673 12.2309 12.4673 12.1134 12.4594C12.0776 12.4594 12.0111 12.4072 12.0111 12.3758C12.0111 11.9635 12.0111 11.5459 12.0111 11.1283C12.0093 11.1109 12.0093 11.0934 12.0111 11.0761C12.0997 11.0709 12.1885 11.0709 12.2771 11.0761C12.4101 11.0761 12.4511 11.0448 12.4511 10.909C12.4511 10.1313 12.4511 9.34304 12.4511 8.5757C12.4467 8.47306 12.4633 8.37063 12.4999 8.27489C12.5364 8.17915 12.592 8.0922 12.6632 8.01956C12.7344 7.94691 12.8196 7.89016 12.9134 7.85291C13.0073 7.81565 13.1077 7.79871 13.2083 7.80314C13.7762 7.80314 14.3441 7.80314 14.9171 7.80314C15.016 7.7926 15.1159 7.80462 15.2096 7.83833C15.3033 7.87204 15.3885 7.92659 15.4591 7.99804C15.5296 8.06949 15.5836 8.15605 15.6173 8.25144C15.651 8.34684 15.6635 8.44868 15.6539 8.5496V11.0604ZM13.8376 12.4594V14.8136H14.0115C14.3083 14.8136 14.3083 14.8136 14.3083 14.516V13.352C14.3083 13.0962 14.3083 12.83 14.3083 12.5794C14.3058 12.5553 14.2975 12.5322 14.2841 12.5121C14.2707 12.4921 14.2527 12.4757 14.2315 12.4646C14.1036 12.4541 13.9757 12.4594 13.8376 12.4594ZM13.8376 11.0709C13.9381 11.0655 14.0389 11.0655 14.1394 11.0709C14.2674 11.0709 14.3134 11.0395 14.3083 10.8986C14.3083 10.4445 14.3083 9.9851 14.3083 9.52574C14.3032 9.176 14.3032 9.176 13.9604 9.176C13.858 9.176 13.8222 9.21254 13.8274 9.31694V10.9404C13.8274 10.9769 13.8325 11.0134 13.8376 11.0709Z" fill="url(#paint1_linear)"/>
<path d="M17.9813 12.4593V11.0813H18.1041H19.0813C19.1731 11.0792 19.2643 11.0959 19.3496 11.1304C19.4349 11.165 19.5125 11.2166 19.5779 11.2823C19.6433 11.3481 19.695 11.4265 19.7301 11.513C19.7652 11.5995 19.783 11.6923 19.7822 11.786V15.4817C19.7857 15.5744 19.7708 15.6668 19.7384 15.7534C19.706 15.8401 19.6568 15.9191 19.5937 15.9859C19.5307 16.0527 19.455 16.1058 19.3714 16.142C19.2877 16.1783 19.1978 16.1969 19.1069 16.1969C18.3446 16.1969 17.572 16.1969 16.8199 16.1969C16.7254 16.1956 16.6321 16.1748 16.5458 16.1356C16.4594 16.0964 16.3818 16.0396 16.3176 15.9688C16.2535 15.898 16.2041 15.8146 16.1726 15.7236C16.1411 15.6327 16.1281 15.5362 16.1343 15.44C16.1343 13.9836 16.1343 12.5324 16.1343 11.0813C16.1343 10.2461 16.1343 9.41609 16.1343 8.58089C16.1299 8.47711 16.1468 8.37354 16.1839 8.27679C16.221 8.18005 16.2774 8.09226 16.3497 8.01906C16.4219 7.94585 16.5083 7.88883 16.6034 7.85165C16.6985 7.81446 16.8001 7.79793 16.9018 7.80311C17.6129 7.80311 18.3241 7.80311 19.0353 7.80311C19.1359 7.79868 19.2363 7.81562 19.3301 7.85288C19.4239 7.89013 19.5092 7.94688 19.5804 8.01953C19.6516 8.09217 19.7072 8.17912 19.7437 8.27486C19.7802 8.3706 19.7968 8.47304 19.7925 8.57567C19.7925 9.04025 19.7925 9.51005 19.7925 9.97985C19.7925 10.0895 19.7567 10.126 19.6492 10.1208C19.2962 10.1208 18.9432 10.1208 18.5902 10.1208C18.4622 10.1208 18.4316 10.0738 18.4367 9.95375C18.4367 9.73973 18.4367 9.52049 18.4367 9.30647C18.4367 9.21251 18.4009 9.17597 18.3036 9.17597C18.0785 9.17597 17.8534 9.17597 17.6283 9.17597C17.5209 9.17597 17.4902 9.21251 17.4902 9.32213C17.4902 9.91199 17.4902 10.5018 17.4902 11.0917V14.8031H18.2934C18.3957 14.8031 18.4367 14.777 18.4367 14.6726C18.4367 13.9731 18.4367 13.2737 18.4367 12.5846C18.4367 12.4854 18.406 12.4489 18.3088 12.4541C18.2116 12.4593 18.099 12.4593 17.9813 12.4593Z" fill="url(#paint2_linear)"/>
<path d="M9.23112 7.80313V14.5891C9.23112 14.8345 9.23112 14.8031 9.446 14.8031C9.66089 14.8031 9.83484 14.8031 10.0241 14.8031C10.1367 14.8031 10.1827 14.7718 10.1776 14.6518C10.1776 14.4482 10.1776 14.2446 10.1776 14.0358V7.99105C10.1776 7.80835 10.1776 7.80313 10.3516 7.80313H11.3748C11.4823 7.80313 11.5181 7.83967 11.5181 7.94929C11.5181 10.4618 11.5181 12.9709 11.5181 15.4765C11.5216 15.5707 11.5062 15.6647 11.4729 15.7527C11.4397 15.8406 11.3892 15.9208 11.3245 15.9882C11.2599 16.0556 11.1825 16.1089 11.097 16.1447C11.0116 16.1806 10.9198 16.1984 10.8274 16.1969C10.0753 16.1969 9.3181 16.1969 8.566 16.1969C8.47379 16.1976 8.38238 16.1794 8.29725 16.1432C8.21211 16.1071 8.13499 16.0538 8.0705 15.9866C8.00602 15.9193 7.9555 15.8395 7.92196 15.7518C7.88842 15.6642 7.87255 15.5705 7.87531 15.4765C7.87531 15.0224 7.87531 14.5682 7.87531 14.1141V8.04325C7.87531 7.77181 7.87531 7.80835 8.11577 7.80835L9.23112 7.80313Z" fill="url(#paint3_linear)"/>
<path d="M7.40089 10.3661C7.40089 10.9664 7.40089 11.572 7.40089 12.1775C7.41154 12.339 7.36611 12.4992 7.27255 12.63C7.179 12.7607 7.0433 12.8537 6.88926 12.8926C6.82448 12.9118 6.75716 12.9206 6.68972 12.9187C6.37251 12.9187 6.05531 12.9187 5.7381 12.9187C5.60507 12.9187 5.55903 12.95 5.55903 13.0962C5.55903 14.0775 5.55903 15.0537 5.55903 16.035C5.55903 16.1655 5.52833 16.2073 5.39531 16.2073C5.0474 16.2073 4.70461 16.2073 4.37205 16.2073C4.23903 16.2073 4.20321 16.1708 4.20321 16.035C4.20321 13.947 4.20321 11.8277 4.20321 9.7293C4.20321 9.3378 4.20321 8.95152 4.20321 8.56002C4.19562 8.45978 4.20929 8.35905 4.2433 8.26469C4.27731 8.17033 4.33085 8.08456 4.40029 8.01322C4.46972 7.94188 4.55342 7.88665 4.64566 7.8513C4.73791 7.81594 4.83654 7.80129 4.93484 7.80834H6.66926C6.7673 7.80049 6.86584 7.81441 6.95809 7.84915C7.05035 7.88389 7.13413 7.93861 7.20367 8.00956C7.27321 8.0805 7.32684 8.16598 7.36089 8.26011C7.39494 8.35424 7.40858 8.45478 7.40089 8.5548V10.3661ZM5.56926 10.3661V11.2222C5.56926 11.5459 5.56926 11.5406 5.88647 11.5459C6.00926 11.5459 6.05019 11.5093 6.05019 11.3788C6.05019 10.7629 6.05019 10.1469 6.05019 9.53094C6.05019 9.17076 6.05019 9.17598 5.70228 9.17598C5.59996 9.17598 5.56926 9.2073 5.56926 9.3117C5.56926 9.66666 5.56926 10.0164 5.56926 10.3661Z" fill="url(#paint4_linear)"/>
</g>
<defs>
<linearGradient id="paint0_linear" x1="12" y1="4.99945" x2="12" y2="18.988" gradientUnits="userSpaceOnUse">
<stop stop-color="#986346"/>
<stop offset="0.510417" stop-color="#9B724E"/>
<stop offset="0.859375" stop-color="#5C2D18"/>
<stop offset="1" stop-color="#8A5F3F"/>
</linearGradient>
<linearGradient id="paint1_linear" x1="13.8334" y1="7.79944" x2="13.8334" y2="16.2049" gradientUnits="userSpaceOnUse">
<stop stop-color="#986346"/>
<stop offset="0.510417" stop-color="#9B724E"/>
<stop offset="0.859375" stop-color="#5C2D18"/>
<stop offset="1" stop-color="#8A5F3F"/>
</linearGradient>
<linearGradient id="paint2_linear" x1="17.963" y1="7.80219" x2="17.963" y2="16.1969" gradientUnits="userSpaceOnUse">
<stop stop-color="#986346"/>
<stop offset="0.510417" stop-color="#9B724E"/>
<stop offset="0.859375" stop-color="#5C2D18"/>
<stop offset="1" stop-color="#8A5F3F"/>
</linearGradient>
<linearGradient id="paint3_linear" x1="9.69679" y1="7.80313" x2="9.69679" y2="16.197" gradientUnits="userSpaceOnUse">
<stop stop-color="#986346"/>
<stop offset="0.510417" stop-color="#9B724E"/>
<stop offset="0.859375" stop-color="#5C2D18"/>
<stop offset="1" stop-color="#8A5F3F"/>
</linearGradient>
<linearGradient id="paint4_linear" x1="5.80207" y1="7.80621" x2="5.80207" y2="16.2073" gradientUnits="userSpaceOnUse">
<stop stop-color="#986346"/>
<stop offset="0.510417" stop-color="#9B724E"/>
<stop offset="0.859375" stop-color="#5C2D18"/>
<stop offset="1" stop-color="#8A5F3F"/>
</linearGradient>
<clipPath id="clip0">
<rect width="22" height="14" fill="white" transform="translate(1 5)"/>
</clipPath>
</defs>
</svg>
