<svg width="24" height="24" viewBox="0 0 24 24" fill="none" xmlns="http://www.w3.org/2000/svg">
<rect x="0.5" y="0.5" width="23" height="23" rx="4.5" fill="black" stroke="#FFEBA0"/>
<g clip-path="url(#clip0)">
<path d="M4 11.3862C4.06514 11.0103 4.11525 10.6295 4.19543 10.2587C4.46864 9.00248 5.04882 7.83351 5.88412 6.85626C5.89398 6.85372 5.90433 6.85372 5.91419 6.85626L7.64297 8.57001C6.99453 9.39059 6.59082 10.3775 6.47825 11.4173C6.36567 12.4571 6.5488 13.5075 7.00658 14.4479L7.09176 14.513C7.1154 14.4474 7.1474 14.3851 7.18697 14.3276C8.0689 13.4407 8.95584 12.5637 9.83276 11.6718C10.0256 11.4765 10.2016 11.2653 10.3589 11.0404C10.6646 10.6045 10.9502 10.1585 11.2459 9.71752C11.2709 9.67743 11.301 9.64236 11.3611 9.56218V9.77264C11.3611 10.8717 11.3611 11.9674 11.3611 13.0598C11.3624 13.1198 11.351 13.1794 11.3277 13.2346C11.3044 13.2899 11.2697 13.3396 11.2258 13.3805C10.3288 14.2675 9.43689 15.1644 8.54494 16.0514C8.48953 16.0988 8.43093 16.1423 8.36956 16.1817C9.3666 17.0468 10.6423 17.5232 11.9624 17.5232C13.2825 17.5232 14.5582 17.0468 15.5553 16.1817L13.7563 14.3927C13.4006 14.037 13.0448 13.6862 12.699 13.3304C12.6401 13.275 12.6028 13.2004 12.5938 13.12C12.5938 11.9624 12.5938 10.7999 12.5938 9.64236C12.5911 9.6157 12.5911 9.58884 12.5938 9.56218C12.6589 9.6624 12.7141 9.73757 12.7592 9.81774C13.4966 11.0125 14.4067 12.0915 15.4601 13.0197C15.9612 13.4958 16.4372 13.9969 16.9283 14.488C17.408 13.5496 17.6087 12.4935 17.5065 11.4446C17.4044 10.3958 17.0037 9.39815 16.352 8.57001L18.0908 6.83121C18.1309 6.87631 18.1961 6.94646 18.2512 7.02162C19.4941 8.55625 20.1132 10.5029 19.985 12.4736C19.8787 14.2566 19.1801 15.9531 18 17.2939C16.8199 18.6347 15.2258 19.543 13.4707 19.8747C13.1901 19.9249 12.9045 19.9599 12.6239 20H11.3811C11.3475 19.9854 11.3122 19.9753 11.2759 19.9699C10.086 19.8732 8.93484 19.5009 7.91356 18.8826C6.94443 18.3142 6.10784 17.5454 5.45972 16.6276C4.8116 15.7099 4.36689 14.6644 4.15534 13.5609C4.0902 13.2502 4.05011 12.9346 4 12.6189V11.3862Z" fill="url(#paint0_radial)"/>
<path d="M17.1685 5.9242L15.4498 7.64797C13.1598 6.05949 10.8547 6.05949 8.55971 7.64797L6.83594 5.91919C8.27203 4.67964 10.1061 3.99807 12.0032 3.99899C13.9002 3.99991 15.7337 4.68326 17.1685 5.9242Z" fill="url(#paint1_radial)"/>
</g>
<defs>
<radialGradient id="paint0_radial" cx="0" cy="0" r="1" gradientUnits="userSpaceOnUse" gradientTransform="translate(12.0008 13.4156) rotate(90) scale(6.5844 8.00077)">
<stop offset="0.510417" stop-color="#E5C657"/>
<stop offset="0.682292" stop-color="white"/>
<stop offset="1" stop-color="#BA8D28"/>
</radialGradient>
<radialGradient id="paint1_radial" cx="0" cy="0" r="1" gradientUnits="userSpaceOnUse" gradientTransform="translate(12.0022 5.82348) rotate(90) scale(1.82449 5.1663)">
<stop offset="0.510417" stop-color="#E5C657"/>
<stop offset="0.682292" stop-color="white"/>
<stop offset="1" stop-color="#BA8D28"/>
</radialGradient>
<clipPath id="clip0">
<rect width="16" height="16" fill="white" transform="translate(4 4)"/>
</clipPath>
</defs>
</svg>
